# xmcd
#
# Track frame offsets:
#	150
#	11607
#	30240
#	47282
#	62306
#	80361
#	99759
#	117484
#	135919
#	152824
#	173455
#	191210
#	204587
#	220672
#	239082
#	259497
#	285248
#	303998
#	323015
#	342380
#	361995
#	378510
#
# Disc length: 5396 seconds
#
# Revision: 0
# Processed by: cddbd v1.5.1PL2 Copyright (c) Steve Scherf et al.
# Submitted via: EasyCDDAExtractor 8.0.1.1
#
DISCID=27151216
DTITLE=Richard Anthony - Hommages
DYEAR=2000
DGENRE=Chanson
TTITLE0=A la porte du garage
TTITLE1=Ma vie
TTITLE2=La mamma
TTITLE3=Inch'Allah
TTITLE4=Comme d'habitude
TTITLE5=Les vieux
TTITLE6=La maladie d'amour
TTITLE7=Je suis malade
TTITLE8=Mon vieux
TTITLE9=L'été indien
TTITLE10=Les vieux mariés
TTITLE11=A toi
TTITLE12=Je pars
TTITLE13=Lettre à France
TTITLE14=Je ne suis pas un héros
TTITLE15=Les lacs du Connemara
TTITLE16=Les corons
TTITLE17=Ils s'aiment
TTITLE18=Plus prés des étoiles
TTITLE19=La ballade de Jim
TTITLE20=Capitaine abandonné
TTITLE21=Le paradis blanc
EXTD=
EXTT0=
EXTT1=
EXTT2=
EXTT3=
EXTT4=
EXTT5=
EXTT6=
EXTT7=
EXTT8=
EXTT9=
EXTT10=
EXTT11=
EXTT12=
EXTT13=
EXTT14=
EXTT15=
EXTT16=
EXTT17=
EXTT18=
EXTT19=
EXTT20=
EXTT21=
PLAYORDER=
